<svg width="86" height="63" viewBox="0 0 86 63" fill="none" xmlns="http://www.w3.org/2000/svg">
<ellipse cx="2.17865" cy="3.19272" rx="2.17889" ry="2.28757" fill="#FF5C00"/>
<ellipse cx="2.17865" cy="41.3533" rx="2.17889" ry="2.28757" fill="#FF5C00"/>
<ellipse cx="34.7663" cy="3.19266" rx="2.17889" ry="2.28757" fill="#FF5C00"/>
<ellipse cx="34.7663" cy="41.3533" rx="2.17889" ry="2.28757" fill="#FF5C00"/>
<ellipse cx="67.3537" cy="3.19266" rx="2.17889" ry="2.28757" fill="#FF5C00"/>
<ellipse cx="67.3537" cy="41.3533" rx="2.17889" ry="2.28757" fill="#FF5C00"/>
<ellipse cx="2.17865" cy="22.2729" rx="2.17889" ry="2.28757" fill="#FF5C00"/>
<ellipse cx="2.17865" cy="60.4332" rx="2.17889" ry="2.28757" fill="#FF5C00"/>
<ellipse cx="34.7663" cy="22.2729" rx="2.17889" ry="2.28757" fill="#FF5C00"/>
<ellipse cx="34.7663" cy="60.4332" rx="2.17889" ry="2.28757" fill="#FF5C00"/>
<ellipse cx="67.3537" cy="22.2729" rx="2.17889" ry="2.28757" fill="#FF5C00"/>
<ellipse cx="67.3537" cy="60.4332" rx="2.17889" ry="2.28757" fill="#FF5C00"/>
<ellipse cx="18.4723" cy="3.19266" rx="2.17889" ry="2.28757" fill="#FF5C00"/>
<ellipse cx="18.4723" cy="41.3533" rx="2.17889" ry="2.28757" fill="#FF5C00"/>
<ellipse cx="51.06" cy="3.19266" rx="2.17889" ry="2.28757" fill="#FF5C00"/>
<ellipse cx="51.06" cy="41.3533" rx="2.17889" ry="2.28757" fill="#FF5C00"/>
<ellipse cx="83.6474" cy="3.19266" rx="2.17889" ry="2.28757" fill="#FF5C00"/>
<ellipse cx="83.6474" cy="41.3533" rx="2.17889" ry="2.28757" fill="#FF5C00"/>
<ellipse cx="18.4723" cy="22.2729" rx="2.17889" ry="2.28757" fill="#FF5C00"/>
<ellipse cx="18.4723" cy="60.4332" rx="2.17889" ry="2.28757" fill="#FF5C00"/>
<ellipse cx="51.06" cy="22.2729" rx="2.17889" ry="2.28757" fill="#FF5C00"/>
<ellipse cx="51.06" cy="60.4332" rx="2.17889" ry="2.28757" fill="#FF5C00"/>
<ellipse cx="83.6474" cy="22.2729" rx="2.17889" ry="2.28757" fill="#FF5C00"/>
<ellipse cx="83.6474" cy="60.4332" rx="2.17889" ry="2.28757" fill="#FF5C00"/>
</svg>
