<svg width="88" height="63" viewBox="0 0 88 63" fill="none" xmlns="http://www.w3.org/2000/svg">
<ellipse cx="2.748" cy="3.42631" rx="2.17889" ry="2.28757" transform="rotate(-0.745038 2.748 3.42631)" fill="#EB00FF"/>
<ellipse cx="3.24385" cy="41.5834" rx="2.17889" ry="2.28757" transform="rotate(-0.745038 3.24385 41.5834)" fill="#EB00FF"/>
<ellipse cx="35.3327" cy="3.00233" rx="2.17889" ry="2.28757" transform="rotate(-0.745038 35.3327 3.00233)" fill="#EB00FF"/>
<ellipse cx="35.8283" cy="41.1597" rx="2.17889" ry="2.28757" transform="rotate(-0.745038 35.8283 41.1597)" fill="#EB00FF"/>
<ellipse cx="67.9177" cy="2.57856" rx="2.17889" ry="2.28757" transform="rotate(-0.745038 67.9177 2.57856)" fill="#EB00FF"/>
<ellipse cx="68.4143" cy="40.7359" rx="2.17889" ry="2.28757" transform="rotate(-0.745038 68.4143 40.7359)" fill="#EB00FF"/>
<ellipse cx="2.99581" cy="22.5047" rx="2.17889" ry="2.28757" transform="rotate(-0.745038 2.99581 22.5047)" fill="#EB00FF"/>
<ellipse cx="3.49239" cy="60.6617" rx="2.17889" ry="2.28757" transform="rotate(-0.745038 3.49239 60.6617)" fill="#EB00FF"/>
<ellipse cx="35.5808" cy="22.0809" rx="2.17889" ry="2.28757" transform="rotate(-0.745038 35.5808 22.0809)" fill="#EB00FF"/>
<ellipse cx="36.0773" cy="60.2381" rx="2.17889" ry="2.28757" transform="rotate(-0.745038 36.0773 60.2381)" fill="#EB00FF"/>
<ellipse cx="68.1657" cy="21.6571" rx="2.17889" ry="2.28757" transform="rotate(-0.745038 68.1657 21.6571)" fill="#EB00FF"/>
<ellipse cx="68.6618" cy="59.8143" rx="2.17889" ry="2.28757" transform="rotate(-0.745038 68.6618 59.8143)" fill="#EB00FF"/>
<ellipse cx="19.04" cy="3.21436" rx="2.17889" ry="2.28757" transform="rotate(-0.745038 19.04 3.21436)" fill="#EB00FF"/>
<ellipse cx="19.5361" cy="41.3715" rx="2.17889" ry="2.28757" transform="rotate(-0.745038 19.5361 41.3715)" fill="#EB00FF"/>
<ellipse cx="51.625" cy="2.79047" rx="2.17889" ry="2.28757" transform="rotate(-0.745038 51.625 2.79047)" fill="#EB00FF"/>
<ellipse cx="52.121" cy="40.9478" rx="2.17889" ry="2.28757" transform="rotate(-0.745038 52.121 40.9478)" fill="#EB00FF"/>
<ellipse cx="84.2099" cy="2.36665" rx="2.17889" ry="2.28757" transform="rotate(-0.745038 84.2099 2.36665)" fill="#EB00FF"/>
<ellipse cx="84.7065" cy="40.5241" rx="2.17889" ry="2.28757" transform="rotate(-0.745038 84.7065 40.5241)" fill="#EB00FF"/>
<ellipse cx="19.2885" cy="22.2928" rx="2.17889" ry="2.28757" transform="rotate(-0.745038 19.2885 22.2928)" fill="#EB00FF"/>
<ellipse cx="19.7846" cy="60.4499" rx="2.17889" ry="2.28757" transform="rotate(-0.745038 19.7846 60.4499)" fill="#EB00FF"/>
<ellipse cx="51.873" cy="21.869" rx="2.17889" ry="2.28757" transform="rotate(-0.745038 51.873 21.869)" fill="#EB00FF"/>
<ellipse cx="52.3696" cy="60.0261" rx="2.17889" ry="2.28757" transform="rotate(-0.745038 52.3696 60.0261)" fill="#EB00FF"/>
<ellipse cx="84.4585" cy="21.4453" rx="2.17889" ry="2.28757" transform="rotate(-0.745038 84.4585 21.4453)" fill="#EB00FF"/>
<ellipse cx="84.9541" cy="59.6024" rx="2.17889" ry="2.28757" transform="rotate(-0.745038 84.9541 59.6024)" fill="#EB00FF"/>
</svg>
