<svg version="1.1" id="Amazon_Logo" xmlns="http://www.w3.org/2000/svg" xmlns:xlink="http://www.w3.org/1999/xlink" 
     width="1000px" height="1000px" viewBox="0 0 5000 5000" style="enable-background:new 0 0 5000 5000;" xml:space="preserve">
    <style type="text/css">
        .st0{fill-rule:evenodd;clip-rule:evenodd;fill:#FF9900;}
        .st1{fill-rule:evenodd;clip-rule:evenodd;}
    </style>
    <g id="Arrow">
        <path id="Steam" class="st0" d="M2913.8,2800.1C2713.1,2948.2,2422,3027,2171.4,3027c-351.2,0-667.5-129.8-906.9-345.9
            c-18.8-17-2-40.1,20.6-27c258.2,150.3,577.6,240.8,907.4,240.8c222.5,0,467.1-46.2,692.1-141.6
            C2918.6,2738.8,2947,2775.5,2913.8,2800.1z"/>
        <path id="Head" class="st0" d="M2997.3,2704.7c-25.7-32.9-169.7-15.6-234.4-7.8c-19.6,2.4-22.6-14.8-5-27.2
            c114.9-80.7,303.2-57.4,325.1-30.4c22,27.2-5.8,216-113.5,306.1c-16.6,13.8-32.3,6.5-25-11.8
            C2968.8,2873.1,3023,2737.6,2997.3,2704.7z"/>
    </g>
    <g id="Text">
        <path id="v" class="st1" d="M3904.6,2576.5H3798c-10.7-0.7-19.2-9.2-19.2-19.7l-0.2-549c0.9-10.1,9.8-17.9,20.5-17.9l99.2,0
            c9.3,0.5,17,6.8,19,15.4v84h2c30-75.1,71.9-110.9,145.7-110.9c47.9,0,94.8,17.3,124.8,64.7c27.9,43.9,27.9,117.8,27.9,170.9v345.4
            c-1.2,9.7-9.9,17.3-20.5,17.3h-107.2c-9.9-0.6-17.9-7.9-19-17.3v-298c0-60.1,7-147.8-66.9-147.8c-26,0-49.9,17.3-61.9,43.9
            c-15,33.5-17,67-17,104v295.5C3925.2,2567.7,3916,2576.5,3904.6,2576.5z"/>
        <path id="o" class="st1" d="M3461.7,1978.3c158.7,0,244.5,136.3,244.5,309.5c0,167.4-94.8,300.3-244.5,300.3
            c-155.7,0-240.6-136.3-240.6-306.1C3221.1,2111.1,3307,1978.3,3461.7,1978.3z M3462.7,2090.3c-78.8,0-83.8,107.4-83.8,174.4
            c0,67-1,210.2,82.9,210.2c82.9,0,86.8-115.5,86.8-185.9c0-46.2-2-101.6-16-145.5C3520.6,2105.3,3496.6,2090.3,3462.7,2090.3z"/>
        <path id="z" class="st1" d="M2767.5,2086.7v-78.4c0.1-11.9,9.1-19.9,19.9-19.9l351.5,0c11.2,0,20.3,8.2,20.3,19.8v67.3
            c-0.1,11.3-9.6,26-26.5,49.4l-182.1,260c67.6-1.6,139.1,8.6,200.5,43.1c13.8,7.8,17.6,19.3,18.7,30.6v83.7
            c0,11.5-12.6,24.9-25.9,17.9c-108.2-56.7-251.7-62.9-371.4,0.7c-12.2,6.5-25-6.6-25-18.2V2463c0-12.7,0.3-34.5,13.1-53.9
            l210.9-302.6l-183.7,0C2776.5,2106.5,2767.5,2098.5,2767.5,2086.7z"/>
        <path id="a_1_" class="st1" d="M2487.3,2314.4c0,41.7,1,76.4-20,113.4c-17,30.1-44,48.6-74,48.6c-41,0-65-31.3-65-77.6
            c0-91.1,81.7-107.6,159.1-107.6V2314.4z M2595.1,2575.2c-7.1,6.4-17.3,6.8-25.2,2.5c-35.5-29.5-41.9-43.2-61.3-71.3
            c-58.7,59.8-100.3,77.7-176.3,77.7c-90,0-160.1-55.6-160.1-166.7c0-86.8,47-145.8,114-174.8c58-25.5,139-30.1,201.1-37.1v-13.9
            c0-25.5,2-55.5-13-77.5c-13-19.7-38-27.8-60-27.8c-40.8,0-77,20.9-86,64.2c-1.9,9.6-8.9,19.2-18.6,19.7l-103.7-11.2
            c-8.8-2-18.5-9-16-22.4C2214,2011,2327.5,1973,2429.2,1973c52,0,120,13.9,161.1,53.2c52,48.6,47,113.4,47,184.1v166.6
            c0,50.1,20.8,72.1,40.4,99.1c6.8,9.8,8.4,21.3-0.3,28.4c-21.8,18.3-60.6,52-82,71L2595.1,2575.2z"/>
        <path id="m" class="st1" d="M1485.3,2576.5h-106.9c-10.2-0.7-18.3-8.3-19.1-18.1l0.1-548.8c0-11,9.2-19.7,20.6-19.7l99.6,0
            c10.4,0.5,18.8,8.4,19.4,18.4v71.6h2c25.9-69.3,74.9-101.6,140.7-101.6c66.9,0,108.8,32.4,138.7,101.6
            c26-69.3,84.9-101.6,147.7-101.6c44.9,0,93.8,18.5,123.8,60.1c33.9,46.2,27,113.2,27,172.1l-0.1,346.4c0,10.9-9.2,19.7-20.6,19.7
            h-106.8c-10.7-0.7-19.2-9.2-19.2-19.7l0-291c0-23.1,2-80.8-3-102.8c-8-37-31.9-47.4-62.9-47.4c-26,0-52.9,17.3-63.9,45
            c-11,27.7-10,73.9-10,105.1v290.9c0,10.9-9.2,19.7-20.6,19.7H1665c-10.7-0.7-19.2-9.2-19.2-19.7l-0.1-291
            c0-61.2,10-151.3-65.9-151.3c-76.9,0-73.9,87.7-73.9,151.3l0,290.9C1506,2567.7,1496.7,2576.5,1485.3,2576.5z"/>
        <path id="a" class="st1" d="M1097.2,2314.4c0,41.7,1,76.4-20,113.4c-17,30.1-44,48.6-74,48.6c-41,0-65-31.3-65-77.6
            c0-91.1,81.7-107.6,159-107.6V2314.4z M1205,2575.2c-7.1,6.4-17.3,6.8-25.3,2.5c-35.5-29.5-41.9-43.2-61.3-71.3
            c-58.7,59.8-100.3,77.7-176.3,77.7c-90,0-160.1-55.6-160.1-166.7c0-86.8,47-145.8,114-174.8c58-25.5,139.1-30.1,201.1-37.1v-13.9
            c0-25.5,2-55.5-13-77.5c-13-19.7-38-27.8-60-27.8c-40.8,0-77.1,20.9-85.9,64.2c-1.9,9.6-8.9,19.2-18.6,19.7L816,2159.1
            c-8.8-2-18.5-9-16-22.4C823.9,2011,937.4,1973,1039.2,1973c52,0,120,13.9,161.1,53.2c52,48.6,47,113.4,47,184.1v166.6
            c0,50.1,20.8,72.1,40.3,99.1c6.8,9.8,8.4,21.3-0.3,28.4c-21.8,18.3-60.7,52-82,71L1205,2575.2z"/>
    </g>
</svg>