<svg fill="none" xmlns="http://www.w3.org/2000/svg" viewBox="0 0 70 24"><path d="M29.7881 12.2992c0 3.2388-2.5709 5.6254-5.7261 5.6254-3.1551 0-5.7261-2.3866-5.7261-5.6254 0-3.2616 2.571-5.62537 5.7261-5.62537 3.1552 0 5.7261 2.36377 5.7261 5.62537Zm-2.5066 0c0-2.0239-1.49-3.4087-3.2195-3.4087-1.7294 0-3.2194 1.3848-3.2194 3.4087 0 2.0036 1.49 3.4087 3.2194 3.4087 1.7295 0 3.2195-1.4076 3.2195-3.4087Z" fill="#EA4335"/><path d="M42.1417 12.2992c0 3.2388-2.571 5.6254-5.7261 5.6254-3.1552 0-5.7261-2.3866-5.7261-5.6254 0-3.25907 2.5709-5.62537 5.7261-5.62537 3.1551 0 5.7261 2.36377 5.7261 5.62537Zm-2.5067 0c0-2.0239-1.49-3.4087-3.2194-3.4087-1.7295 0-3.2195 1.3848-3.2195 3.4087 0 2.0036 1.49 3.4087 3.2195 3.4087 1.7294 0 3.2194-1.4076 3.2194-3.4087Z" fill="#FBBC05"/><path d="M53.9798 7.01368V17.113c0 4.1543-2.4861 5.851-5.425 5.851-2.7666 0-4.4317-1.8235-5.0596-3.3148l2.1824-.8953c.3886.9156 1.3408 1.996 2.8746 1.996 1.8812 0 3.047-1.1438 3.047-3.2971v-.809h-.0875c-.561.6822-1.6419 1.2782-3.0058 1.2782-2.8541 0-5.4688-2.45-5.4688-5.6025 0-3.17538 2.6147-5.64567 5.4688-5.64567 1.3614 0 2.4422.59601 3.0058 1.25797h.0875v-.91558h2.3806v-.00254Zm-2.203 5.30582c0-1.9808-1.3408-3.429-3.047-3.429-1.7295 0-3.1784 1.4482-3.1784 3.429 0 1.9605 1.4489 3.3884 3.1784 3.3884 1.7062 0 3.047-1.4279 3.047-3.3884Z" fill="#4285F4"/><path d="M57.9048 1.09424V17.5797H55.46V1.09424h2.4448Z" fill="#34A853"/><path d="m67.4317 14.1507 1.9455 1.2783c-.6279.9156-2.1411 2.4931-4.7558 2.4931-3.2427 0-5.6644-2.4703-5.6644-5.6254 0-3.34524 2.4423-5.62531 5.3839-5.62531 2.9621 0 4.411 2.32318 4.8845 3.57861l.2599.6391-7.6305 3.1145c.5842 1.1287 1.4927 1.7044 2.7666 1.7044 1.2764 0 2.1617-.6189 2.8103-1.5573Zm-5.9886-2.0239 5.1007-2.0873c-.2805-.70253-1.1246-1.19203-2.118-1.19203-1.2739 0-3.0471 1.10834-2.9827 3.27933Z" fill="#EA4335"/><path d="M9.08211 10.8357V8.44913h8.16069c.0798.41594.1209.90797.1209 1.44058 0 1.79059-.4967 4.00469-2.0974 5.58229-1.557 1.5978-3.5463 2.45-6.18161 2.45-4.88456 0-8.99192-3.9211-8.99192-8.73483 0-4.81376 4.10736-8.73478 8.99192-8.73478 2.70221 0 4.62721 1.04493 6.07351 2.40689l-1.7088 1.68405c-1.0371-.95869-2.4423-1.70434-4.36729-1.70434-3.56691 0-6.35662 2.83297-6.35662 6.34818 0 3.51523 2.78971 6.34823 6.35662 6.34823 2.31359 0 3.63129-.9156 4.47539-1.7475.6845-.6746 1.1349-1.6384 1.3125-2.9547l-5.78789.0025Z" fill="#4285F4"/></svg>